<?xml version="1.0" encoding="UTF-8"?>
<svg id="Layer_1" xmlns="http://www.w3.org/2000/svg" version="1.1" viewBox="0 0 2143.4 1199.2">
  <!-- Generator: Adobe Illustrator 29.1.0, SVG Export Plug-In . SVG Version: 2.1.0 Build 142)  -->
  <defs>
    <style>
      .st0 {
        font-family: EdsMarketMainScript, 'Eds Market Main Script';
        font-size: 233px;
      }

      .st0, .st1, .st2 {
        fill: #7c0a3d;
      }

      .st1 {
        stroke: #7c0a3d;
        stroke-miterlimit: 10;
      }
    </style>
  </defs>
  <path class="st1" d="M1039.7,1025.4c-10.2-38.3-14.7-76.6-5.5-120.4,7.1-33.9-8-112.9-105.9-123.6,30.6,14.4,26.6,68.1,16.2,95.7-6.8,18-17.5,34.3-27.4,50.8-10.4,17.2-20.1,34.8-28.5,53-25.7,55.8-45.4,138.5,10.9,183.5,45.4,36.3,122.6,26.9,147.6-29.4,15.9-35.7,2-74.3-7.4-109.5ZM1032.1,1086.6c.5,3.5.7,6.9.8,10.3,3.1,2.1,4.8,5.8,3,10.5-6,15.8-13.1,32.2-25.9,43.8-13.3,11.9-29.8,16.4-47.2,17.9-4.2.4-7-1.4-8.6-4.1-14.9-1.5-29.3-7-41.1-16.2-25.1-19.7-31.4-53-28.6-83.2,3.2-35.5,18.4-69.3,35.1-100.3,18.6-34.5,46-67.8,51.3-107.8,2.2-16.8-.4-35-8.1-50.3,13.8,4.5,28.7,9,38.8,19.8,10.8,11.5,13.4,27.7,13.7,43,.2,15.7-1.9,31.4-3.1,47.1-1.5,19.5-1.5,39.2-.1,58.7,1.3,18.5,3.8,37,7.4,55.2,2.2,10.8,5.1,21.4,7.7,32.1.4,0,.9,0,1.3,0,12.4,0,13.3,17.6,2.9,20.4.2,1,.4,2.1.5,3.1Z"/>
  <path class="st2" d="M1044.6,1072.1c-3.3-6-6.7-12-10-18-.8-1.5-1.9-2.8-3.2-3.8-1.4-3.2-3.8-5.9-6.8-7.7-.8-1.6-1.7-3.2-2.5-4.8,4.8-7.9,6.5-17.5,3.9-27.3-5.1-19-10.2-38-15.3-56.9,2.1-3.2,3.8-6.7,4.9-10.6,1.4-4.8,2.3-10.1,2.2-15.2-.5-3.9-1-7.7-1.6-11.5,0-.4,0-1,0-1.6,0-.7,0-1.3,0-1.7.2-.5.4-1.2.6-2.1,1.3-4.4,2.4-8.8,3.5-13.2,2.3-9.5,4-19.5,3.1-29.3-.9-9.6-5-19-11.6-25.8.4-3.1.3-6.3-.7-9.4-.8-2-1.7-4-2.5-6-2.2-3.8-5.2-6.7-9-9-.4-.2-.7-.4-1-.5-.3-.3-.6-.7-.9-1-2.3-2.4-4.9-4.2-8-5.2-1.8-.9-3.7-1.5-5.6-1.9-3-3.1-7.3-5.2-12.9-5.2-16.1,0-21.5,16.8-16,27.9,0,.7,0,1.3,0,2,.3,2.2.6,4.4.9,6.6.7,2.5,1.7,4.7,3.1,6.8-4.5,5.7-7.2,12.8-6.4,20.6.1,1.5.2,6.8.5,6.1-.6,3.1-1.6,6.3-2.4,9.3-2.3,8.6-4.1,16.9-5,25.9-.3,2.7-.3,5.3-.2,7.9-2.1,1.6-4.1,3.3-5.9,5.3-9.8,10.5-15,23.7-19.1,37.2-5.7,9.2-10.4,19-13.9,29.3-.4.6-.9,1.3-1.3,1.9-1.5,1.8-3,3.5-4.6,5.2-8.3,9.1-11.9,22.3-9.2,34-8.7,28.6-12.9,63.7-4.6,92.8,5.8,20.4,24.5,33.2,45.4,39.3,2,6.6,7.7,12.1,15.2,11.8,27.6-1.3,56.5-10.8,75-32.4,8.7-10.2,15.7-22.3,18.4-35.6,1-5,1.7-10.4,1.7-15.7,4.5-5.1,5.6-12.4,2.1-18.8Z"/>
  <text class="st0"><tspan x="262" y="279.6">Kristen’s</tspan><tspan x="262" y="559.2">Cellar </tspan><tspan x="262" y="838.8">Estates</tspan></text>
</svg>